<?xml version="1.0" encoding="UTF-8" standalone="no"?>
<!-- Created with Inkscape (http://www.inkscape.org/) -->

<svg
   width="210mm"
   height="297mm"
   viewBox="0 0 210 297"
   version="1.1"
   id="svg5"
   inkscape:version="1.1 (c4e8f9ed74, 2021-05-24)"
   sodipodi:docname="logo.svg"
   xmlns:inkscape="http://www.inkscape.org/namespaces/inkscape"
   xmlns:sodipodi="http://sodipodi.sourceforge.net/DTD/sodipodi-0.dtd"
   xmlns="http://www.w3.org/2000/svg"
   xmlns:svg="http://www.w3.org/2000/svg">
  <sodipodi:namedview
     id="namedview7"
     pagecolor="#ffffff"
     bordercolor="#666666"
     borderopacity="1.0"
     inkscape:pageshadow="2"
     inkscape:pageopacity="0.0"
     inkscape:pagecheckerboard="0"
     inkscape:document-units="mm"
     showgrid="false"
     inkscape:snap-object-midpoints="true"
     inkscape:snap-smooth-nodes="true"
     inkscape:snap-intersection-paths="true"
     inkscape:zoom="0.71713664"
     inkscape:cx="152.69057"
     inkscape:cy="320.71991"
     inkscape:window-width="1920"
     inkscape:window-height="1080"
     inkscape:window-x="0"
     inkscape:window-y="0"
     inkscape:window-maximized="1"
     inkscape:current-layer="layer1" />
  <defs
     id="defs2" />
  <g
     inkscape:label="Layer 1"
     inkscape:groupmode="layer"
     id="layer1">
    <circle
       style="fill:#e200ff;fill-opacity:1;stroke-width:0.328738"
       id="circle1686"
       cx="82.056259"
       cy="101.58429"
       r="37.927425" />
    <circle
       style="fill:#0000ff;fill-opacity:1;stroke-width:0.264583"
       id="path1306"
       cx="82.056259"
       cy="101.58429"
       r="30.525665" />
    <path
       style="fill:none;stroke:#000000;stroke-width:0.264583px;stroke-linecap:butt;stroke-linejoin:miter;stroke-opacity:1"
       d="m 299.7242,110.42113 c 0.35989,-3.95982 4.37008,-6.12436 6.49548,-9.2663 0.91806,-1.357166 5.98588,-11.14816 7.66032,-9.929258 0.73328,0.533768 -0.50033,2.664579 -0.51107,3.238543 -0.0183,0.983017 0.24449,1.878079 0.0637,2.873609 -0.30283,1.66783 -0.92279,3.246326 -1.06049,4.959596 -0.32647,4.06181 2.0718,16.35107 3.85213,19.60208 1.24616,2.27563 3.34594,4.6508 5.57823,5.96853 11.35945,6.70553 17.73274,-9.294 19.86239,-17.74079 1.54492,-6.12759 1.55688,-8.83508 -1.00693,-14.39991 -0.62053,-1.346919 -1.02726,-2.275139 -2.23785,-3.038669 -0.41187,-0.259749 0.0449,0.973348 0.0953,1.457652 0.2044,1.963769 -0.10121,3.931071 -0.14265,5.902277 -0.13682,6.51149 -0.3042,13.01791 -0.57956,19.52561 -0.20655,4.88055 -0.6284,9.69497 -0.54727,14.58754 0.074,4.46498 0.71665,9.16375 -0.38005,13.5635 -0.63858,2.56201 -1.29648,3.59854 -2.61432,5.87501 -4.34421,7.50435 -9.01204,11.63843 -18.13697,8.87382 -2.53934,-0.76934 -5.31814,-2.15273 -6.77205,-4.50069 -1.62411,-2.62282 -0.55168,-6.0477 1.02667,-8.42699 6.24,-9.40653 16.07105,-15.07279 25.96161,-19.94382 3.39552,-1.67227 8.67976,-3.99991 12.0791,-6.28096 4.60005,-3.08675 6.43909,-4.54241 9.97945,-8.29432 4.26073,-4.51534 7.06708,-9.72535 10.64929,-14.66819 0.18413,-0.25409 0.37247,0.60245 0.27438,0.90055 -0.13883,0.42195 -0.75648,0.46585 -1.13234,0.70255"
       id="path1600" />
    <path
       style="fill:none;stroke:#000000;stroke-width:0.201855px;stroke-linecap:butt;stroke-linejoin:miter;stroke-opacity:1"
       d="m 137.88497,178.36175 c 0.95942,-1.38615 2.08445,-2.64992 3.38973,-3.772 1.4915,-1.28217 3.16605,-2.35237 4.64048,-3.65414 0.053,-0.0468 2.23289,-2.26004 2.3202,-2.20595 0.27709,0.17166 -0.6865,1.34184 -0.7613,1.51555 -0.48481,1.12591 -0.46656,2.64538 -0.54382,3.82252 -0.23678,3.60726 -0.15365,7.11039 -0.88821,10.69295 -0.70008,3.4144 -2.97887,11.37107 -2.53777,14.83544 0.21118,1.65852 1.50258,2.86711 2.90031,3.78884 5.0692,3.3429 11.64986,-0.23045 15.35344,-3.67098 2.28023,-2.11826 3.91225,-4.4789 5.61931,-6.9883"
       id="path1602" />
    <path
       style="fill:none;stroke:#000000;stroke-width:0.264583px;stroke-linecap:butt;stroke-linejoin:miter;stroke-opacity:1"
       d="m 167.37734,192.72568 c 1.9527,-3.80253 2.24314,-8.09388 3.52672,-12.09118 1.53062,-4.76662 3.82106,-8.3566 6.66419,-12.36601 0.80096,-1.12951 2.07158,-4.85157 2.26722,-3.48078 0.22595,1.58323 -1.94577,5.10151 -2.47331,6.50359 -1.46583,3.89579 -2.10047,7.77733 -2.15268,11.95379 -0.025,1.99821 0.13832,4.23643 0.64119,6.18299 0.35029,1.35594 0.75722,1.85605 1.6031,2.83959 0.36825,0.42819 0.45857,1.03095 0.89313,1.3969 0.39573,0.33324 0.9669,0.27481 1.44276,0.27481 3.39462,0 5.57222,-2.12564 7.76341,-4.6487 1.44947,-1.66901 1.95859,-4.07509 3.09166,-5.97691"
       id="path1604" />
    <path
       style="fill:none;stroke:#000000;stroke-width:0.264583px;stroke-linecap:butt;stroke-linejoin:miter;stroke-opacity:1"
       d="m 75.23679,149.49908 c 2.391422,-3.1766 6.940364,-2.90461 10.401855,-4.45612 1.49519,-0.67019 10.959762,-6.32423 11.741212,-4.40621 0.342226,0.83994 -1.828653,2.00159 -2.140066,2.48384 -0.533276,0.826 -0.78128,1.72527 -1.459273,2.47633 -1.135812,1.25829 -2.494161,2.27362 -3.513531,3.65751 -2.416727,3.2809 -6.850313,14.99077 -7.049085,18.692 -0.13916,2.59076 0.394896,5.71571 1.598509,8.01154 6.124826,11.6828 19.968949,1.43858 26.227919,-4.62021 4.54047,-4.39526 5.97657,-6.69053 6.72793,-12.77131 0.18188,-1.47179 0.32499,-2.47506 -0.30198,-3.76169 -0.21332,-0.43772 -0.47446,0.85107 -0.68668,1.2893 -0.86049,1.777 -2.15638,3.2884 -3.22977,4.94225 -3.54567,5.46319 -7.11465,10.90598 -10.77608,16.29299 -2.74599,4.04005 -5.640168,7.91049 -8.147935,12.11227 -2.288633,3.83454 -4.216999,8.1673 -7.466459,11.32982 -1.892156,1.84159 -2.997321,2.37622 -5.316515,3.61734 -7.645162,4.09132 -13.79043,5.14722 -20.091283,-2.00866 -1.753445,-1.99137 -3.387052,-4.63085 -3.386401,-7.39251 7.26e-4,-3.08495 2.716128,-5.43154 5.310926,-6.62286 10.258532,-4.70987 21.599863,-4.34897 32.572964,-3.28072 3.767163,0.36674 9.485043,1.17108 13.576083,1.02233 5.53606,-0.2013 7.86602,-0.47016 12.85158,-1.79499 6,-1.59441 11.12953,-4.5453 16.77788,-6.86047 0.29034,-0.11902 -6.6e-4,0.70829 -0.24104,0.91004 -0.34024,0.28557 -0.88841,-0.002 -1.33258,8.6e-4"
       id="path2066" />
    <path
       style="fill:none;stroke:#000000;stroke-width:0.264583px;stroke-linecap:butt;stroke-linejoin:miter;stroke-opacity:1"
       d="m 190.64473,183.31377 c 0.35989,-3.95982 4.37008,-6.12436 6.49548,-9.2663 0.91806,-1.35717 5.98588,-11.14816 7.66032,-9.92926 0.73328,0.53377 -0.50033,2.66458 -0.51107,3.23854 -0.0183,0.98302 0.24449,1.87808 0.0637,2.87361 -0.30283,1.66783 -0.92279,3.24633 -1.06049,4.9596 -0.32647,4.06181 2.0718,16.35107 3.85213,19.60208 1.24616,2.27563 3.34594,4.6508 5.57823,5.96853 11.35945,6.70553 17.73274,-9.294 19.86239,-17.74079 1.54492,-6.12759 1.55688,-8.83508 -1.00693,-14.39991 -0.62053,-1.34692 -1.02726,-2.27514 -2.23785,-3.03867 -0.41187,-0.25975 0.0449,0.97335 0.0953,1.45765 0.2044,1.96377 -0.10121,3.93107 -0.14265,5.90228 -0.13682,6.51149 -0.3042,13.01791 -0.57956,19.52561 -0.20655,4.88055 -0.6284,9.69497 -0.54727,14.58754 0.074,4.46498 0.71665,9.16375 -0.38005,13.5635 -0.63858,2.56201 -1.29648,3.59854 -2.61432,5.87501 -4.34421,7.50435 -9.01204,11.63843 -18.13697,8.87382 -2.53934,-0.76934 -5.31814,-2.15273 -6.77205,-4.50069 -1.62411,-2.62282 -0.55168,-6.0477 1.02667,-8.42699 6.24,-9.40653 16.07105,-15.07279 25.96161,-19.94382 3.39552,-1.67227 8.67976,-3.99991 12.0791,-6.28096 4.60005,-3.08675 6.43909,-4.54241 9.97945,-8.29432 4.26073,-4.51534 7.06708,-9.72535 10.64929,-14.66819 0.18413,-0.25409 0.37247,0.60245 0.27438,0.90055 -0.13883,0.42195 -0.75648,0.46585 -1.13234,0.70255"
       id="path2068" />
    <path
       style="fill:none;stroke:#000000;stroke-width:0.264583px;stroke-linecap:butt;stroke-linejoin:miter;stroke-opacity:1"
       d="m 269.97011,190.99342 c 0.58778,0.23664 1.32337,0.25396 1.76335,0.70992 0.47342,0.49063 0.59512,1.23807 0.75575,1.90068 1.30054,5.36437 -3.61937,9.54754 -6.98479,12.7782"
       id="path2138" />
    <circle
       style="fill:#0000ff;fill-opacity:1;stroke-width:0.152041"
       id="circle2220"
       cx="70.455925"
       cy="170.97118"
       r="17.541372"
       transform="rotate(-12.276337)"
       inkscape:transform-center-x="-0.70991995"
       inkscape:transform-center-y="1.2137058" />
    <path
       style="fill:none;stroke:#000000;stroke-width:0.264583px;stroke-linecap:butt;stroke-linejoin:miter;stroke-opacity:1"
       d="m 244.57291,102.69112 c 0.25955,-0.5038 0.48135,-1.02892 0.77865,-1.5114 0.8835,-1.433805 2.06419,-2.733213 2.97714,-4.167803 0.24263,-0.381267 1.24421,-1.24397 1.07634,-0.82438 -0.33098,0.827283 -1.56868,1.585468 0.36642,2.08389 4.20064,1.081952 9.04871,1.955083 13.28253,0.709895 2.07933,-0.611536 4.01116,-1.521304 6.00006,-2.358705 1.44788,-0.609608 3.06131,-0.914146 4.44277,-1.671687 1.33946,-0.734494 3.06219,-4.017137 4.94663,-3.389202 1.13496,0.378201 0.0365,3.421192 0.36642,4.167802 0.93633,2.119085 6.1123,0.699497 7.4199,0.0458"
       id="path2288" />
  </g>
</svg>
